<svg width="770" height="117" viewBox="0 0 770 117" fill="none" xmlns="http://www.w3.org/2000/svg">
<path d="M16.92 100.752C15.32 100.752 13.944 100.272 12.792 99.312C11.64 98.416 11.128 96.56 11.256 93.744C11.384 90.608 11.608 87.344 11.928 83.952C12.248 80.56 12.6 77.392 12.984 74.448C13.816 67.984 14.008 62.992 13.56 59.472C13.176 55.888 12.184 53.328 10.584 51.792C9.048 50.256 6.968 49.232 4.344 48.72C3.064 48.464 2.04 47.984 1.272 47.28C0.504 46.512 0.12 45.52 0.12 44.304C0.12 42.704 0.76 41.648 2.04 41.136C3.256 40.624 4.824 40.368 6.744 40.368C8.216 40.368 10.104 40.464 12.408 40.656C14.776 40.784 17.304 40.88 19.992 40.944C22.232 33.584 24.76 27.504 27.576 22.704C30.392 17.904 33.464 14.128 36.792 11.376C40.12 8.56 43.64 6.608 47.352 5.51999C51.064 4.36799 54.904 3.79199 58.872 3.79199C63.8 3.79199 66.264 5.55199 66.264 9.07199C66.264 10.8 65.432 12.112 63.768 13.008C62.104 13.904 59.576 14.64 56.184 15.216C52.152 15.92 48.6 17.232 45.528 19.152C42.52 21.072 39.864 23.792 37.56 27.312C35.32 30.832 33.336 35.376 31.608 40.944C40.504 40.752 47.8 40.272 53.496 39.504C59.192 38.736 63.576 38 66.648 37.296C69.784 36.528 71.96 36.144 73.176 36.144C74.904 36.144 75.96 36.56 76.344 37.392C76.792 38.224 77.016 39.12 77.016 40.08C77.016 41.168 75.992 42.288 73.944 43.44C72.6 44.208 70.456 45.072 67.512 46.032C64.568 46.928 61.112 47.824 57.144 48.72C53.176 49.552 48.984 50.256 44.568 50.832C40.216 51.344 35.96 51.6 31.8 51.6C30.776 51.6 29.848 51.6 29.016 51.6C28.312 55.312 27.608 59.248 26.904 63.408C26.264 67.504 25.688 71.504 25.176 75.408C24.664 79.312 24.216 82.864 23.832 86.064C23.512 89.264 23.32 91.824 23.256 93.744C23.192 96.112 22.584 97.872 21.432 99.024C20.28 100.176 18.776 100.752 16.92 100.752ZM64.9553 86.44C63.1633 86.44 61.5633 85.832 60.1553 84.616C58.8113 83.4 58.1393 81.416 58.1393 78.664C58.1393 77.192 58.3313 75.112 58.7153 72.424C59.1633 69.736 59.7393 66.824 60.4433 63.688C61.1473 60.488 61.9153 57.32 62.7473 54.184C63.6433 51.048 64.5073 48.264 65.3393 45.832C66.1713 43.336 66.9073 41.48 67.5473 40.264C68.3793 38.792 69.1473 37.896 69.8513 37.576C70.6193 37.192 71.3553 37 72.0593 37C73.3393 37 74.5233 37.384 75.6113 38.152C76.7633 38.92 77.3393 40.616 77.3393 43.24C77.3393 44.264 77.1473 45.928 76.7633 48.232C76.3793 50.472 75.8993 53.096 75.3233 56.104C74.7473 59.112 74.1073 62.216 73.4033 65.416C72.7633 68.616 72.1233 71.656 71.4833 74.536C70.9073 77.352 70.4273 79.72 70.0433 81.64C69.7233 83.24 69.0513 84.424 68.0273 85.192C67.0673 86.024 66.0433 86.44 64.9553 86.44ZM75.9953 27.496C73.8833 27.496 71.9313 26.888 70.1393 25.672C68.3473 24.392 67.4513 22.44 67.4513 19.816C67.4513 17.64 67.9953 15.88 69.0833 14.536C70.1713 13.192 71.4513 12.232 72.9233 11.656C74.4593 11.016 75.8033 10.696 76.9553 10.696C78.1073 10.696 79.3873 10.952 80.7953 11.464C82.2033 11.912 83.4193 12.776 84.4433 14.056C85.5313 15.272 86.0753 17.032 86.0753 19.336C86.0753 20.872 85.5313 22.28 84.4433 23.56C83.3553 24.776 82.0113 25.736 80.4113 26.44C78.8753 27.144 77.4033 27.496 75.9953 27.496ZM99.8378 90C98.3018 90 96.7658 89.488 95.2298 88.464C93.7578 87.376 92.5418 85.84 91.5818 83.856C90.6218 81.808 90.1418 79.344 90.1418 76.464C90.1418 72.624 90.6538 68.528 91.6778 64.176C92.7658 59.824 94.0778 55.472 95.6138 51.12C97.1498 46.768 98.6538 42.672 100.126 38.832C100.83 36.976 101.694 35.728 102.718 35.088C103.742 34.384 105.086 34.032 106.75 34.032C110.526 34.032 112.414 35.92 112.414 39.696C112.414 40.336 112.126 41.584 111.55 43.44C110.974 45.232 110.206 47.44 109.246 50.064C108.35 52.688 107.39 55.536 106.366 58.608C105.406 61.616 104.51 64.688 103.678 67.824C102.91 70.896 102.302 73.808 101.854 76.56C103.326 74.32 104.958 71.536 106.75 68.208C108.606 64.816 110.558 61.264 112.606 57.552C114.718 53.84 116.83 50.384 118.942 47.184C121.054 43.92 123.134 41.264 125.182 39.216C127.23 37.168 129.182 36.144 131.038 36.144C132.638 36.144 134.142 36.464 135.55 37.104C137.022 37.68 138.302 38.832 139.39 40.56C140.478 42.224 141.31 44.624 141.886 47.76C142.526 50.896 142.846 55.024 142.846 60.144C142.846 62.704 143.07 65.2 143.518 67.632C144.03 70 144.862 71.984 146.014 73.584C147.166 75.12 148.798 75.888 150.91 75.888C154.558 75.888 157.822 75.216 160.702 73.872C163.582 72.528 166.11 70.96 168.286 69.168C170.462 67.376 172.286 65.808 173.758 64.464C174.654 63.568 175.422 62.864 176.062 62.352C176.766 61.84 177.342 61.584 177.79 61.584C179.134 61.584 180.094 61.936 180.67 62.64C181.31 63.344 181.63 64.304 181.63 65.52C181.63 66.16 181.086 67.344 179.998 69.072C178.91 70.8 177.374 72.784 175.39 75.024C173.47 77.2 171.262 79.312 168.766 81.36C166.27 83.408 163.582 85.104 160.702 86.448C157.822 87.792 154.878 88.464 151.87 88.464C146.814 88.464 142.622 87.568 139.294 85.776C136.03 83.92 133.598 80.848 131.998 76.56C130.398 72.208 129.598 66.288 129.598 58.8C129.598 58.608 129.598 58.288 129.598 57.84C129.598 55.856 129.566 54.096 129.502 52.56C129.502 51.024 129.406 49.776 129.214 48.816C128.126 50.8 126.814 53.168 125.278 55.92C123.806 58.672 122.206 61.616 120.478 64.752C118.75 67.824 116.958 70.864 115.102 73.872C113.246 76.816 111.39 79.504 109.534 81.936C107.742 84.368 106.014 86.32 104.35 87.792C102.686 89.264 101.182 90 99.8378 90ZM212.545 38.64C216.065 30.256 219.169 21.616 221.857 12.72C222.369 10.928 223.105 9.55199 224.065 8.592C225.089 7.632 226.497 7.152 228.289 7.152C229.761 7.152 230.881 7.6 231.649 8.496C232.417 9.328 232.801 10.48 232.801 11.952C232.801 13.168 232.289 15.344 231.265 18.48C230.241 21.552 228.993 25.456 227.521 30.192C226.049 34.928 224.577 40.4 223.105 46.608C221.633 52.816 220.385 59.632 219.361 67.056C218.337 74.48 217.825 82.416 217.825 90.864C217.825 93.168 217.377 95.056 216.481 96.528C215.649 98.064 214.177 98.832 212.065 98.832C209.761 98.832 208.065 98.032 206.977 96.432C205.953 94.832 205.441 92.784 205.441 90.288C205.441 85.36 205.601 81.264 205.921 78C206.305 74.672 206.689 71.824 207.073 69.456C203.937 74.832 200.609 79.472 197.089 83.376C193.633 87.216 190.305 90.16 187.105 92.208C183.905 94.32 181.153 95.376 178.849 95.376C175.073 95.376 172.001 94.32 169.633 92.208C167.265 90.096 166.081 86.896 166.081 82.608C166.081 79.28 166.881 75.856 168.481 72.336C170.081 68.752 172.193 65.232 174.817 61.776C177.441 58.32 180.321 55.088 183.457 52.08C186.657 49.008 189.857 46.32 193.057 44.016C196.257 41.648 199.233 39.792 201.985 38.448C204.737 37.104 206.977 36.432 208.705 36.432C210.625 36.432 211.905 37.168 212.545 38.64ZM210.337 43.824C209.953 44.08 209.537 44.336 209.089 44.592C208.705 44.784 208.321 45.008 207.937 45.264C205.505 46.8 202.913 48.656 200.161 50.832C197.409 52.944 194.689 55.312 192.001 57.936C189.313 60.496 186.849 63.184 184.609 66C182.433 68.752 180.673 71.504 179.329 74.256C178.049 76.944 177.409 79.536 177.409 82.032C177.409 82.48 177.601 82.8 177.985 82.992C178.369 83.184 178.721 83.28 179.041 83.28C181.281 83.28 183.681 82.288 186.241 80.304C188.865 78.32 191.521 75.568 194.209 72.048C196.961 68.464 199.681 64.272 202.369 59.472C205.121 54.672 207.777 49.456 210.337 43.824ZM302.406 116.4C298.822 116.4 295.558 116.176 292.614 115.728C289.67 115.344 286.79 114.704 283.974 113.808C281.158 112.912 278.118 111.728 274.854 110.256C273.51 109.616 272.39 108.944 271.494 108.24C270.598 107.536 270.15 106.48 270.15 105.072C270.15 103.024 270.79 101.456 272.07 100.368C273.286 99.344 274.982 98.832 277.158 98.832C278.31 98.832 279.782 99.216 281.574 99.984C283.366 100.816 285.414 101.744 287.718 102.768C290.086 103.856 292.71 104.784 295.59 105.552C298.47 106.384 301.574 106.8 304.902 106.8C308.294 106.8 311.462 105.392 314.406 102.576C317.35 99.76 319.718 95.792 321.51 90.672C323.366 85.616 324.294 79.632 324.294 72.72C324.294 71.12 324.262 69.392 324.198 67.536C324.134 65.616 324.07 63.6 324.006 61.488C321.702 65.84 319.206 69.904 316.518 73.68C313.83 77.456 311.046 80.528 308.166 82.896C305.35 85.2 302.502 86.352 299.622 86.352C296.102 86.352 293.542 85.52 291.942 83.856C290.406 82.128 289.638 79.408 289.638 75.696C289.638 72.56 289.862 69.136 290.31 65.424C290.822 61.648 291.494 57.84 292.326 54C293.158 50.16 294.118 46.512 295.206 43.056C296.358 39.536 297.574 36.496 298.854 33.936C299.814 32.08 301.286 31.152 303.27 31.152C304.55 31.152 305.83 31.76 307.11 32.976C308.454 34.192 309.126 35.824 309.126 37.872C309.126 39.024 308.838 40.688 308.262 42.864C307.686 45.04 306.982 47.504 306.15 50.256C305.382 52.944 304.582 55.792 303.75 58.8C302.918 61.744 302.214 64.656 301.638 67.536C301.062 70.352 300.774 72.912 300.774 75.216C300.774 75.472 300.966 75.6 301.35 75.6C302.118 75.6 303.142 74.96 304.422 73.68C305.766 72.336 307.238 70.608 308.838 68.496C310.502 66.32 312.166 63.952 313.83 61.392C315.558 58.768 317.222 56.176 318.822 53.616C320.422 51.056 321.862 48.72 323.142 46.608C322.95 45.584 322.822 44.688 322.758 43.92C322.758 43.088 322.758 42.384 322.758 41.808C322.758 39.184 323.206 37.008 324.102 35.28C325.062 33.552 326.918 32.688 329.67 32.688C331.462 32.688 332.838 33.36 333.798 34.704C334.758 35.984 335.238 37.808 335.238 40.176C335.238 41.2 335.078 42.384 334.758 43.728C334.438 45.008 333.798 47.056 332.838 49.872L333.894 46.896C334.47 52.656 334.95 57.776 335.334 62.256C335.782 66.736 336.006 71.184 336.006 75.6C336.006 83.92 334.598 91.12 331.782 97.2C329.03 103.344 325.126 108.08 320.07 111.408C315.078 114.736 309.19 116.4 302.406 116.4ZM367.339 93.168C362.795 93.168 359.147 91.568 356.395 88.368C353.643 85.104 352.267 80.752 352.267 75.312C352.267 73.584 352.491 71.824 352.939 70.032C353.451 68.24 354.059 66.576 354.763 65.04C354.379 64.464 354.059 63.728 353.803 62.832C353.611 61.872 353.515 60.752 353.515 59.472C353.515 55.312 354.251 51.504 355.723 48.048C357.195 44.528 359.179 41.488 361.675 38.928C364.171 36.368 366.923 34.384 369.931 32.976C372.939 31.568 375.979 30.864 379.051 30.864C384.299 30.864 388.587 32.624 391.915 36.144C395.307 39.664 397.003 45.136 397.003 52.56C397.003 56.272 396.427 60.048 395.275 63.888C394.123 67.728 392.555 71.408 390.571 74.928C388.651 78.384 386.411 81.488 383.851 84.24C381.355 86.992 378.667 89.168 375.787 90.768C372.971 92.368 370.155 93.168 367.339 93.168ZM365.803 60.72C366.123 61.424 366.283 62.256 366.283 63.216C366.283 64.176 366.091 65.168 365.707 66.192C365.323 67.216 364.939 68.592 364.555 70.32C364.171 71.984 363.979 74.384 363.979 77.52C363.979 78.352 364.075 79.056 364.267 79.632C364.523 80.144 365.067 80.4 365.899 80.4C368.075 80.4 370.123 79.696 372.043 78.288C374.027 76.88 375.787 75.024 377.323 72.72C378.923 70.416 380.267 67.856 381.355 65.04C382.507 62.16 383.371 59.248 383.947 56.304C384.587 53.296 384.907 50.512 384.907 47.952C384.907 46.288 384.587 45.136 383.947 44.496C383.307 43.856 382.187 43.536 380.587 43.536C378.411 43.536 376.171 44.24 373.867 45.648C371.627 46.992 369.739 48.848 368.203 51.216C366.667 53.52 365.899 56.144 365.899 59.088C365.899 59.664 365.867 60.208 365.803 60.72ZM411.888 94.224C410.288 94.224 408.912 93.648 407.76 92.496C406.672 91.344 406.128 89.68 406.128 87.504C406.128 86.544 406.256 84.976 406.512 82.8C406.832 80.56 407.216 78 407.664 75.12C408.176 72.24 408.656 69.232 409.104 66.096C409.616 62.96 410.032 59.984 410.352 57.168C410.736 54.352 410.992 51.952 411.12 49.968C411.248 47.536 411.888 45.808 413.04 44.784C414.192 43.696 415.568 43.152 417.168 43.152C418.448 43.152 419.6 43.472 420.624 44.112C421.712 44.688 422.384 45.936 422.64 47.856C422.96 49.712 422.992 52.4 422.736 55.92C425.552 50.8 428.4 46.224 431.28 42.192C434.224 38.16 437.296 34.96 440.496 32.592C445.808 28.56 450.608 26.544 454.896 26.544C457.328 26.544 458.928 27.088 459.696 28.176C460.464 29.264 460.848 30.384 460.848 31.536C460.848 32.304 460.656 33.008 460.272 33.648C459.952 34.288 459.248 34.96 458.16 35.664C457.072 36.368 455.408 37.296 453.168 38.448C450.16 39.984 447.184 42 444.24 44.496C441.36 46.992 438.48 50.192 435.6 54.096C432.72 58 429.808 62.8 426.864 68.496C423.92 74.192 420.88 80.976 417.744 88.848C417.168 91.024 416.336 92.464 415.248 93.168C414.224 93.872 413.104 94.224 411.888 94.224ZM568.427 41.616C568.427 42.384 568.171 43.056 567.659 43.632C567.147 44.208 566.507 44.656 565.739 44.976C564.651 45.424 562.763 46 560.075 46.704C557.387 47.408 554.123 48.208 550.283 49.104C546.507 50 542.443 50.928 538.091 51.888C533.739 52.784 529.387 53.648 525.035 54.48C523.371 60.624 521.675 66.96 519.947 73.488C518.219 79.952 516.491 86.32 514.763 92.592C514.123 94.832 513.355 96.528 512.459 97.68C511.563 98.896 510.027 99.504 507.851 99.504C505.483 99.504 503.883 98.736 503.051 97.2C502.283 95.728 502.187 93.712 502.763 91.152C504.427 84.176 505.963 77.68 507.371 71.664C508.843 65.648 510.027 60.784 510.923 57.072C507.083 57.712 503.723 58.224 500.843 58.608C497.963 58.928 495.915 59.056 494.698 58.992C493.354 58.864 492.234 58.32 491.338 57.36C490.442 56.4 490.026 55.216 490.09 53.808C490.218 52.528 490.794 51.44 491.818 50.544C492.842 49.584 494.058 49.008 495.466 48.816C497.451 48.624 500.011 48.336 503.147 47.952C506.283 47.568 509.739 47.12 513.515 46.608C514.347 43.344 515.307 39.984 516.395 36.528C517.483 33.008 518.603 29.648 519.755 26.448C520.971 23.184 522.123 20.336 523.211 17.904C524.299 15.472 525.291 13.712 526.187 12.624C526.891 11.792 527.755 11.152 528.779 10.704C529.867 10.256 530.923 10.032 531.947 10.032C533.291 10.032 534.379 10.512 535.211 11.472C536.043 12.432 536.459 13.552 536.459 14.832C536.459 15.344 536.427 15.888 536.363 16.464C536.299 16.976 536.171 17.488 535.979 18C534.763 21.2 533.451 25.072 532.043 29.616C530.699 34.16 529.291 39.152 527.819 44.592C532.619 43.888 537.323 43.184 541.931 42.48C546.603 41.712 550.827 41.008 554.603 40.368C558.443 39.664 561.515 39.056 563.819 38.544C565.099 38.096 566.187 38.192 567.083 38.832C567.979 39.408 568.427 40.336 568.427 41.616ZM570.531 93.264C566.563 93.264 563.363 91.888 560.931 89.136C558.499 86.32 557.283 81.808 557.283 75.6C557.283 71.632 557.731 67.664 558.627 63.696C559.587 59.664 560.899 55.856 562.563 52.272C564.291 48.624 566.275 45.392 568.515 42.576C570.819 39.76 573.347 37.552 576.099 35.952C578.851 34.288 581.699 33.456 584.643 33.456C589.635 33.456 593.539 34.8 596.355 37.488C599.171 40.176 600.579 43.6 600.579 47.76C600.579 50.96 599.683 53.872 597.891 56.496C596.163 59.056 593.795 61.36 590.787 63.408C587.779 65.456 584.419 67.312 580.707 68.976C576.995 70.64 573.187 72.144 569.283 73.488C568.963 75.792 568.803 77.84 568.803 79.632C568.803 80.72 569.411 81.264 570.627 81.264C573.507 81.264 576.579 80.816 579.843 79.92C583.171 78.96 586.531 77.744 589.923 76.272C593.315 74.736 596.579 73.168 599.715 71.568C602.851 69.904 605.699 68.336 608.259 66.864C610.883 65.328 613.027 64.112 614.691 63.216C616.419 62.256 617.539 61.776 618.051 61.776C619.459 61.776 620.483 62.192 621.123 63.024C621.763 63.856 622.083 64.752 622.083 65.712C622.083 66.16 621.219 67.152 619.491 68.688C617.827 70.224 615.523 72.048 612.579 74.16C609.699 76.208 606.435 78.352 602.787 80.592C599.203 82.768 595.459 84.848 591.555 86.832C587.715 88.752 583.971 90.288 580.323 91.44C576.739 92.656 573.475 93.264 570.531 93.264ZM570.915 64.944C573.539 63.408 576.131 61.808 578.691 60.144C581.315 58.416 583.491 56.496 585.219 54.384C586.947 52.208 587.811 49.68 587.811 46.8C587.811 45.968 587.587 45.424 587.139 45.168C586.691 44.848 586.051 44.688 585.219 44.688C582.979 44.688 580.931 45.68 579.075 47.664C577.283 49.648 575.683 52.208 574.275 55.344C572.931 58.416 571.811 61.616 570.915 64.944ZM631.739 92.688C628.155 92.688 625.051 91.856 622.427 90.192C619.803 88.592 617.787 86.512 616.379 83.952C614.971 81.328 614.267 78.64 614.267 75.888C614.267 71.28 614.971 67.024 616.379 63.12C617.787 59.152 619.643 55.568 621.947 52.368C624.251 49.104 626.747 46.224 629.435 43.728C632.187 41.232 634.843 39.152 637.403 37.488C640.027 35.76 642.363 34.48 644.411 33.648C646.459 32.752 647.963 32.304 648.923 32.304C650.651 32.304 651.867 32.688 652.571 33.456C653.339 34.16 653.723 35.344 653.723 37.008C653.723 37.968 653.019 39.12 651.611 40.464C650.267 41.808 648.475 43.344 646.235 45.072C644.059 46.8 641.755 48.752 639.323 50.928C636.891 53.104 634.555 55.536 632.315 58.224C630.139 60.912 628.347 63.856 626.939 67.056C625.595 70.256 624.923 73.744 624.923 77.52C624.923 78.928 625.179 80.016 625.691 80.784C626.267 81.552 627.195 81.936 628.475 81.936C632.123 81.936 636.027 81.296 640.187 80.016C644.411 78.672 648.603 77.008 652.763 75.024C656.987 72.976 660.955 70.864 664.667 68.688C668.443 66.512 671.675 64.56 674.363 62.832C675.451 62.064 676.379 61.456 677.147 61.008C677.915 60.56 678.459 60.336 678.779 60.336C680.699 60.336 681.659 61.328 681.659 63.312C681.659 64.336 680.891 65.712 679.355 67.44C677.563 69.68 675.131 71.984 672.059 74.352C669.051 76.72 665.691 78.992 661.979 81.168C658.331 83.344 654.587 85.296 650.747 87.024C646.971 88.752 643.419 90.128 640.091 91.152C636.763 92.176 633.979 92.688 631.739 92.688ZM680.074 97.488C677.13 97.488 675.018 96.656 673.738 94.992C672.458 93.328 671.818 90.896 671.818 87.696C671.818 84.752 672.362 80.912 673.45 76.176C674.602 71.376 676.106 66.032 677.962 60.144C679.882 54.192 682.026 48.08 684.394 41.808C686.762 35.472 689.226 29.264 691.786 23.184C694.346 17.04 696.842 11.408 699.274 6.288C700.426 4.04799 701.642 2.512 702.922 1.68C704.202 0.847998 705.61 0.431997 707.146 0.431997C708.618 0.431997 709.866 0.847998 710.89 1.68C711.914 2.448 712.426 3.696 712.426 5.424C712.426 5.80799 711.914 7.27999 710.89 9.84C709.866 12.336 708.522 15.6 706.858 19.632C705.194 23.6 703.37 28.08 701.386 33.072C699.402 38 697.418 43.152 695.434 48.528C693.45 53.84 691.658 59.088 690.058 64.272C688.458 69.456 687.178 74.256 686.218 78.672C688.458 75.664 690.858 72.336 693.418 68.688C696.042 64.976 698.698 61.296 701.386 57.648C704.138 53.936 706.826 50.544 709.45 47.472C712.138 44.4 714.634 41.936 716.938 40.08C719.242 38.224 721.258 37.296 722.986 37.296C726.186 37.296 728.746 38.192 730.666 39.984C732.65 41.712 733.642 44.72 733.642 49.008C733.642 50.992 733.258 53.392 732.49 56.208C731.722 58.96 730.794 61.872 729.706 64.944C728.682 67.952 727.786 70.864 727.018 73.68C726.25 76.496 725.866 78.96 725.866 81.072C725.866 82.224 726.41 82.8 727.498 82.8C730.634 82.8 733.802 82.128 737.002 80.784C740.266 79.44 743.37 77.776 746.314 75.792C749.322 73.744 752.042 71.728 754.474 69.744C756.97 67.696 758.986 66 760.522 64.656C761.61 63.632 762.602 62.96 763.498 62.64C764.394 62.256 765.226 62.064 765.994 62.064C768.618 62.064 769.93 63.376 769.93 66C769.93 66.512 769.834 67.152 769.642 67.92C769.45 68.624 768.842 69.52 767.818 70.608C766.794 71.696 765.258 73.232 763.21 75.216C761.162 77.2 758.762 79.312 756.01 81.552C753.322 83.792 750.378 85.936 747.178 87.984C744.042 89.968 740.81 91.6 737.482 92.88C734.154 94.16 730.922 94.8 727.786 94.8C723.05 94.8 719.402 93.456 716.842 90.768C714.282 88.144 713.002 84.56 713.002 80.016C713.002 76.88 713.642 72.944 714.922 68.208C716.202 63.408 717.642 58.512 719.242 53.52C717.002 55.696 714.666 58.288 712.234 61.296C709.802 64.24 707.338 67.376 704.842 70.704C702.346 73.968 699.882 77.2 697.45 80.4C695.082 83.536 692.81 86.416 690.634 89.04C688.458 91.6 686.474 93.648 684.682 95.184C682.89 96.72 681.354 97.488 680.074 97.488Z" fill="white" fill-opacity="0.75"/>
</svg>
