<svg width="484" height="93" viewBox="0 0 484 93" fill="none" xmlns="http://www.w3.org/2000/svg">
<path d="M10.992 24.536C7.92 24.536 5.648 24.248 4.176 23.672C2.768 23.032 1.84 22.296 1.392 21.464C1.008 20.568 0.816 19.768 0.816 19.064C0.816 18.168 1.328 17.144 2.352 15.992C3.376 14.776 5.36 13.88 8.304 13.304C11.248 12.664 14.736 12.088 18.768 11.576C22.8 11 27.088 10.52 31.632 10.136C36.176 9.688 40.784 9.304 45.456 8.984C50.128 8.664 54.576 8.44 58.8 8.31199C63.024 8.12 66.768 8.024 70.032 8.024C73.424 8.024 76.048 8.216 77.904 8.6C79.76 8.984 81.072 9.46399 81.84 10.04C82.672 10.616 83.152 11.224 83.28 11.864C83.472 12.504 83.568 13.112 83.568 13.688C83.568 13.816 83.568 13.912 83.568 13.976C83.568 14.744 83.376 15.576 82.992 16.472C82.672 17.368 81.936 18.136 80.784 18.776C79.632 19.352 77.904 19.64 75.6 19.64C74.768 19.64 72.912 19.768 70.032 20.024C67.152 20.28 63.632 20.6 59.472 20.984C55.312 21.368 50.896 21.752 46.224 22.136C45.52 25.016 44.72 28.376 43.824 32.216C42.992 36.056 42.128 40.088 41.232 44.312C40.4 48.536 39.6 52.696 38.832 56.792C38.064 60.824 37.424 64.568 36.912 68.024C36.4 71.416 36.048 74.2 35.856 76.376C35.6 79.32 34.736 81.4 33.264 82.616C31.856 83.768 30.448 84.344 29.04 84.344C28.016 84.344 26.992 84.12 25.968 83.672C24.944 83.288 24.112 82.424 23.472 81.08C22.832 79.672 22.512 77.592 22.512 74.84C22.512 72.024 22.768 68.568 23.28 64.472C23.792 60.312 24.464 55.864 25.296 51.128C26.192 46.392 27.184 41.624 28.272 36.824C29.424 32.024 30.608 27.544 31.824 23.384C27.536 23.704 23.568 23.992 19.92 24.248C16.272 24.44 13.296 24.536 10.992 24.536ZM107.456 83.768C105.728 83.768 103.84 83.352 101.792 82.52C99.8083 81.624 97.9203 80.12 96.1283 78.008C94.3363 75.896 92.8643 72.984 91.7123 69.272C90.5603 65.56 89.9843 60.856 89.9843 55.16C89.9843 50.936 90.5283 46.648 91.6163 42.296C92.7683 37.88 94.5603 33.72 96.9923 29.816C99.4243 25.912 102.56 22.52 106.4 19.64C110.304 16.76 114.976 14.744 120.416 13.592C122.656 13.08 125.216 12.6 128.096 12.152C131.04 11.64 134.016 11.192 137.024 10.808C140.032 10.36 142.88 10.008 145.568 9.752C148.32 9.496 150.624 9.368 152.48 9.368C155.552 9.368 157.856 9.784 159.392 10.616C160.928 11.448 161.952 12.408 162.464 13.496C162.976 14.52 163.232 15.448 163.232 16.28C163.232 17.304 162.912 18.328 162.272 19.352C161.696 20.376 160.096 21.048 157.472 21.368C156.896 21.432 155.68 21.592 153.824 21.848C151.968 22.04 149.728 22.328 147.104 22.712C144.544 23.096 141.824 23.512 138.944 23.96C136.128 24.344 133.376 24.76 130.688 25.208C128.064 25.592 125.792 25.944 123.872 26.264C119.648 27.032 116.224 28.312 113.6 30.104C110.976 31.832 108.928 33.88 107.456 36.248C106.048 38.616 105.024 41.112 104.384 43.736C106.944 43.16 109.6 42.584 112.352 42.008C115.104 41.432 117.696 40.92 120.128 40.472C122.624 40.024 124.768 39.672 126.56 39.416C128.352 39.16 129.568 39.032 130.208 39.032C132.704 39.032 134.208 39.352 134.72 39.992C135.296 40.632 135.584 41.624 135.584 42.968C135.584 44.184 134.496 45.592 132.32 47.192C130.144 48.728 126.688 50.296 121.952 51.896C117.216 53.496 111.008 54.904 103.328 56.12C103.328 56.184 103.328 56.216 103.328 56.216C103.2 57.496 103.104 58.968 103.04 60.632C102.976 62.232 102.944 63.832 102.944 65.432C102.944 67.032 103.04 68.344 103.232 69.368C103.424 70.392 103.776 70.904 104.288 70.904C105.696 70.904 107.648 70.616 110.144 70.04C112.64 69.464 115.264 68.76 118.016 67.928C120.768 67.096 123.328 66.296 125.696 65.528C128.064 64.696 129.792 64.056 130.88 63.608C132.48 62.968 134.08 62.328 135.68 61.688C137.344 61.048 138.656 60.728 139.616 60.728C140.576 60.728 141.408 61.112 142.112 61.88C142.816 62.584 143.04 63.672 142.784 65.144C142.72 65.784 142.048 66.84 140.768 68.312C139.552 69.72 137.856 71.32 135.68 73.112C133.568 74.84 131.04 76.536 128.096 78.2C125.216 79.8 122.016 81.144 118.496 82.232C115.04 83.256 111.36 83.768 107.456 83.768ZM233.687 81.08C233.687 82.872 233.079 84.184 231.863 85.016C230.647 85.848 229.047 86.296 227.063 86.36C224.823 86.36 222.263 85.464 219.383 83.672C216.567 81.944 213.591 79.608 210.455 76.664C207.319 73.72 204.247 70.456 201.239 66.872C198.231 63.224 195.447 59.576 192.887 55.928C191.223 62.776 189.815 68.216 188.663 72.248C187.511 76.216 186.359 79.064 185.207 80.792C184.119 82.52 182.807 83.384 181.271 83.384C179.031 83.384 177.527 82.424 176.759 80.504C175.991 78.52 175.607 76.152 175.607 73.4C175.607 71.48 175.735 69.528 175.991 67.544C176.311 65.496 176.791 63.096 177.431 60.344C178.071 57.528 178.935 54.04 180.023 49.88C178.615 48.536 177.911 47.032 177.911 45.368C177.911 44.152 178.231 42.968 178.871 41.816C179.575 40.6 180.887 39.608 182.807 38.84C184.599 32.952 186.135 28.152 187.415 24.44C188.695 20.664 189.847 17.752 190.871 15.704C191.895 13.656 192.823 12.248 193.655 11.48C194.551 10.712 195.479 10.328 196.439 10.328C198.231 10.328 199.607 10.84 200.567 11.864C201.527 12.888 202.007 14.68 202.007 17.24C202.007 18.2 201.719 20.152 201.143 23.096C200.631 25.976 199.639 30.232 198.167 35.864C203.799 31.512 208.983 27.224 213.719 23C218.455 18.776 222.583 14.936 226.103 11.48C229.687 8.024 232.599 5.272 234.839 3.224C237.079 1.176 238.519 0.151997 239.159 0.151997C241.015 0.151997 242.487 0.759996 243.575 1.976C244.727 3.128 245.303 4.44 245.303 5.912C245.303 7.384 244.663 8.92 243.383 10.52C241.975 12.184 240.087 14.296 237.719 16.856C235.351 19.416 232.695 22.2 229.751 25.208C226.807 28.152 223.703 31.096 220.439 34.04C217.175 36.92 213.879 39.544 210.551 41.912C207.287 44.28 204.119 46.136 201.047 47.48C201.687 48.12 202.359 48.856 203.063 49.688C203.831 50.456 204.631 51.32 205.463 52.28C207.639 54.648 210.231 57.272 213.239 60.152C216.247 62.968 219.319 65.752 222.455 68.504C225.655 71.192 228.535 73.56 231.095 75.608C231.991 76.44 232.631 77.272 233.015 78.104C233.463 78.872 233.687 79.864 233.687 81.08ZM274.502 31.736C271.43 31.736 269.254 31.416 267.974 30.776C266.694 30.136 265.926 29.368 265.67 28.472C265.414 27.576 265.286 26.808 265.286 26.168C265.286 26.104 265.286 26.072 265.286 26.072C265.286 24.664 265.926 23.32 267.206 22.04C268.486 20.696 270.278 19.768 272.582 19.256C274.502 18.872 276.774 18.488 279.398 18.104C282.086 17.656 284.902 17.272 287.846 16.952C290.854 16.568 293.734 16.28 296.486 16.088C299.238 15.896 301.67 15.8 303.782 15.8C306.598 15.8 308.774 16.216 310.31 17.048C311.846 17.816 312.902 18.712 313.478 19.736C314.118 20.76 314.438 21.624 314.438 22.328C314.438 22.968 314.278 23.608 313.958 24.248C313.638 24.888 312.838 25.528 311.558 26.168C310.342 26.808 308.39 27.416 305.702 27.992C303.014 28.568 299.302 29.112 294.566 29.624C294.118 29.688 293.638 29.752 293.126 29.816C292.678 32.568 292.134 35.864 291.494 39.704C290.854 43.48 290.15 47.448 289.382 51.608C288.678 55.704 287.974 59.64 287.27 63.416C286.63 67.128 286.054 70.296 285.542 72.92C288.166 72.664 290.47 72.472 292.454 72.344C294.502 72.216 295.878 72.152 296.582 72.152C298.822 72.152 300.358 72.632 301.19 73.592C302.022 74.488 302.438 75.672 302.438 77.144C302.438 77.72 301.414 78.616 299.366 79.832C297.318 81.048 294.47 82.36 290.822 83.768C287.238 85.176 283.11 86.424 278.438 87.512C275.366 88.216 272.326 88.76 269.318 89.144C266.31 89.528 264.134 89.72 262.79 89.72C260.166 89.72 258.47 89.24 257.702 88.28C256.998 87.32 256.646 86.104 256.646 84.632C256.646 83.352 257.03 82.04 257.798 80.696C258.63 79.352 259.782 78.392 261.254 77.816C262.79 77.24 264.486 76.696 266.342 76.184C268.198 75.672 270.118 75.224 272.102 74.84C272.23 73.176 272.486 70.968 272.87 68.216C273.254 65.464 273.67 62.456 274.118 59.192C274.63 55.864 275.142 52.504 275.654 49.112C276.23 45.656 276.774 42.424 277.286 39.416C277.862 36.344 278.342 33.688 278.726 31.448C276.87 31.64 275.462 31.736 274.502 31.736ZM338.671 83.768C337.007 83.768 335.791 82.968 335.023 81.368C334.255 79.768 333.871 76.92 333.871 72.824C333.871 67.064 334.223 60.984 334.927 54.584C335.695 48.12 336.687 41.144 337.903 33.656C338.991 27.704 341.583 23.128 345.679 19.928C349.839 16.728 355.407 14.104 362.383 12.056C366.735 10.776 371.247 9.592 375.919 8.504C380.591 7.416 384.975 6.552 389.071 5.912C393.231 5.208 396.655 4.856 399.343 4.856C401.391 4.856 402.991 5.176 404.143 5.816C405.295 6.456 406.095 7.256 406.543 8.216C407.055 9.112 407.311 9.944 407.311 10.712C407.311 11.928 407.023 13.016 406.447 13.976C405.871 14.936 404.623 15.672 402.703 16.184C401.871 16.44 400.111 16.888 397.423 17.528C394.799 18.104 391.567 18.808 387.727 19.64C383.951 20.472 379.951 21.368 375.727 22.328C371.503 23.224 367.407 24.152 363.439 25.112C359.535 26.264 356.655 27.672 354.799 29.336C353.007 30.936 351.823 33.272 351.247 36.344C351.119 36.984 350.991 37.88 350.863 39.032C353.487 38.2 356.303 37.528 359.311 37.016C362.319 36.504 365.103 36.12 367.663 35.864C370.223 35.608 372.111 35.48 373.327 35.48C374.607 35.48 375.951 35.704 377.359 36.152C378.831 36.536 380.079 37.144 381.103 37.976C382.191 38.744 382.735 39.736 382.735 40.952C382.735 42.104 382.287 43.16 381.391 44.12C380.495 45.016 378.671 45.88 375.919 46.712C375.343 46.904 374.031 47.16 371.983 47.48C369.999 47.8 367.631 48.216 364.879 48.728C362.191 49.176 359.439 49.688 356.623 50.264C353.871 50.84 351.439 51.448 349.327 52.088C348.879 55.544 348.463 59 348.079 62.456C347.695 65.912 347.375 68.92 347.119 71.48C346.863 73.976 346.671 75.544 346.543 76.184C346.159 78.552 345.231 80.408 343.759 81.752C342.287 83.096 340.591 83.768 338.671 83.768ZM451.39 92.696C448.83 92.696 446.974 92.056 445.822 90.776C444.67 89.496 444.094 87.992 444.094 86.264C444.094 84.216 445.182 79.64 447.358 72.536C449.534 65.368 453.054 55.64 457.918 43.352C455.678 46.168 453.406 48.76 451.102 51.128C448.798 53.496 446.494 55.384 444.19 56.792C441.95 58.136 439.742 58.808 437.566 58.808C432.766 58.808 429.022 57.336 426.334 54.392C423.646 51.448 422.302 46.744 422.302 40.28C422.302 33.624 422.814 27.96 423.838 23.288C424.862 18.552 426.11 14.712 427.582 11.768C429.054 8.824 430.494 6.68 431.902 5.336C433.31 3.928 434.398 3.224 435.166 3.224C437.47 3.224 439.23 3.768 440.446 4.856C441.726 5.88 442.366 7.32 442.366 9.17599C442.366 10.968 441.982 12.888 441.214 14.936C440.51 16.984 439.678 19.352 438.718 22.04C437.758 24.728 436.894 27.928 436.126 31.64C435.422 35.288 435.07 39.64 435.07 44.696C435.07 45.848 435.454 46.424 436.222 46.424C438.462 46.424 440.766 45.624 443.134 44.024C445.566 42.36 447.966 40.216 450.334 37.592C452.766 34.968 455.07 32.088 457.246 28.952C459.422 25.752 461.406 22.584 463.198 19.448C465.054 16.312 466.59 13.496 467.806 11C468.574 9.52799 469.278 8.18399 469.918 6.96799C470.558 5.688 471.39 4.696 472.414 3.992C473.438 3.224 474.846 2.84 476.638 2.84C478.878 2.84 480.574 3.448 481.726 4.664C482.942 5.88 483.55 7.608 483.55 9.848C483.55 11.128 482.334 14.648 479.902 20.408C477.47 26.104 474.366 34.648 470.59 46.04C467.838 54.36 465.534 61.336 463.678 66.968C461.822 72.6 460.254 77.144 458.974 80.6C457.758 83.992 456.734 86.552 455.902 88.28C455.07 90.008 454.302 91.16 453.598 91.736C452.894 92.376 452.158 92.696 451.39 92.696Z" fill="white" fill-opacity="0.75"/>
</svg>
